<?xml version="1.0" ?><svg xmlns="http://www.w3.org/2000/svg" width="24" height="24" viewBox="0 0 24 24" fill="none"><path d="M4 3C4.55228 3 5 3.44772 5 4V18C5 18.5523 5.44772 19 6 19H20C20.5523 19 21 19.4477 21 20C21 20.5523 20.5523 21 20 21H6C4.34315 21 3 19.6569 3 18V4C3 3.44772 3.44772 3 4 3Z" fill="#0D4DDF"/><path d="M15 5C15 4.44772 15.4477 4 16 4H20C20.5523 4 21 4.44772 21 5V9C21 9.55228 20.5523 10 20 10C19.4477 10 19 9.55228 19 9V7.5989L14.2328 12.6804C13.9306 13.0059 13.45 13.093 13.0528 12.8944L10.7511 11.7436L8.25926 14.6508C7.89983 15.0701 7.26853 15.1187 6.84921 14.7592C6.42988 14.3998 6.38132 13.7685 6.74074 13.3492L9.74074 9.8492C10.0394 9.5008 10.5368 9.40035 10.9472 9.60557L13.277 10.7705L17.7565 6H16C15.4477 6 15 5.55228 15 5Z" fill="#0D4DDF"/></svg>